<svg width="122" height="117" viewBox="0 0 122 117" xmlns="http://www.w3.org/2000/svg">
    <g fill="none" fill-rule="evenodd">
        <g fill="#3D4B66">
            <path d="M70.065 97.524c.62-2.551 1.695-3.656 3.365-4.935 1.404-1.077 3.696-2.396 5.794-2.152 2.232.261 10.149 3.958 11.603 5.176-1.7 3.801-4 4.404-9.794 6.66-3.978 1.55-9.115-1.807-10.968-4.749zm42.624-17.359c-1.322 2.837-4.63 7.049-7.24 8.539-1.911 1.09-3.174 1.897-6.129 1.145-9.185-2.34-2.249-11.154 2.267-12.342 1.882-.495 5.198-.62 7.485-.616 3.369.007 5.158-.032 3.617 3.274zm2.268-21.041c-.616 5.26-1.655 7.366-6.798 9.17-2.895 1.016-3.9.866-5.028-1.152-4.233-7.581 2.707-11.828 7.148-14.674 6.574-4.212 5.305 1.292 4.678 6.656zM98.467 49.12c-2.376-1.905-6.669-5.941-4.632-10.894 1.255-3.048 4.47-9.011 6.746-10.152 1.223.846 2.729 3.486 3.269 5.141.328 1.006 1.878 6.055 1.917 6.537.341 4.306-4.103 8.202-7.3 9.368zM88.791 27.56c0 8.115-11.432 7.35-13.449-4.346-.259-1.499-.667-2.608-.924-3.786-.602-2.765-.194-2.153-.108-2.793l.263-.904c3.23-.552 6.643 1.91 9.047 3.446 3.487 2.227 5.17 4.157 5.17 8.383zm-3.529 8.773 4.867.17c.904 2.503-1.907 5.71 2.501 11.594 5.025 6.707 5.134 4.205 10.47 4.249-.362.817-2.105 2.594-2.796 3.888-2.365 4.432-1.755 6.669-.818 11.318.889 4.412 1.122 1.942 2.725 4.722-1.575 3.932-4.813 1.308-8.252 6.573-2.892 4.429-2.209 6.229-3.016 11.684-3.956.262-3.4-1.37-6.973-2.264C70.625 84.93 65.908 94.96 66 96.998c.813 2.717 3.693 5.735 6.134 7.286 6.644 4.223 14.506-.278 20.056-3.55 9.265-5.463-.104-6.982 4.3-7.852 2.633-.52 4.048 1.692 10.268-.768 4.406-1.742 11.927-13.652 11.649-16.064-.41-3.568-6.275-2.455-10.414-3.827C110.164 70.4 119 70.297 119 55.441c0-13.533-.325-10.837-11.503-5.75-1.175.534-.682.34-1.05.547-1.62.914.167.504-2.402 1.25.642-3.016-.286-.197 1.483-2.713l.435-.619c1.816-2.547 2.317-2.808 2.745-6.348.548-4.526-3.775-19.798-8.36-18.617-3.921 1.01-3.468 6.413-7.691 6.665l-.303-1.311c-.452-3.635-.207-6.317-3.58-9.742-3.114-3.163-13.796-9.634-16.991-7.31-2.277 1.658-.943 5.14-.52 7.957.72 4.796 1.104 11.781 5.992 14.52 2.1 1.175 5.528 2.364 8.007 2.364zM31.332 95.338c1.603-1.431 8.87-4.869 11.481-4.9 2.55-.033 4.904 1.493 6.583 3.028 3.7 3.382 1.02 6.165-2.87 8.23-3.703 1.965-8.343-.007-11.652-2.044-1.979-1.218-3.695-1.126-3.542-4.314zM23.935 79.63c1.182 1.13 6.288 7.263-.188 9.712-8.313 3.142-14.302-7.739-15.496-11.477 1.54-1.396 11.804-1.937 15.684 1.765zm-5.847-11.233c-4.14.98-8.675-1.993-9.988-4.39-1.093-1.996-2.292-10.363-1.614-12.49 2.736-1.283 4.447.273 6.25 1.531 4.25 2.97 10.139 6.682 5.352 15.349zm5.982-19.279c-12.903-2.876-6.492-17.742-2.695-20.996 2.537 1.201 5.372 7.691 6.453 10.312 1.939 4.7-2.034 7.97-3.758 10.684zm9.486-17.45c-1.264-6.155-.145-9.537 3.526-11.967 2.483-1.645 7.064-5.16 10.226-3.498-.977 4.815-.273 9.258-3.008 12.849-2.261 2.969-7.149 4.929-10.744 2.617zm-4.859-1.482c-1.944-.167-2.779-2.403-3.628-3.703-6.36-9.735-9.55 3.838-11.504 10.054-2.654 8.447 3.06 11.25 4.533 14.533C13.826 51.455 3 39.842 3 49.633 3 70.06 7.187 67.746 13.902 72.07c-3.83 1.338-5.677.984-9.404 1.652-1.713 4.623.875 6.471 3.483 10.902.776 1.319 1.295 2.015 2.384 3.378 6.29 7.872 12.24 4.267 16.222 4.83-.763 6.022-4.563 2.858 5.395 9.193 7.85 4.993 14.066 5.795 20.582-.577l.263-.257c.23-.223.646-.575.81-.755 4.643-5.065-3.198-15.202-14.13-12.653-6.956 1.622-5.086 3.235-8.415 2.534l-.356-1.337c-.475-3.69-.551-10.252-6.736-13.62-2.159-1.175-3.105-.667-4.235-3.138 1.222-2.933 1.81-.223 2.596-4.225 2.152-10.97-1.639-12.019-3.389-15.633 2.533-.274 3.705.985 6.047-.103 1.942-.903 2.864-2.48 3.943-3.941 4.268-5.777 1.398-5.613 2.565-11.634 2.863-1.065 11.065.952 15.684-5.759 2.178-3.163 4.347-13.503 3.45-18.076-.98-5.006-11.785 1.563-14.251 3.015-8.274 4.876-5.785 11.138-7.713 14.318z"/>
            <path d="M38.303 61.357c0-5.317 1.79-11.16 5.506-14.992l4.082-3.836c8.565-5.697 19.9-5.317 27.443 1.94 6.897 6.639 9.421 16.683 5.052 25.658-6.361 13.07-24.348 16.755-35.368 6.082-2.91-2.818-6.715-9.091-6.715-14.852zm18.824-26.006c-6.038 1.574-11.63 2.699-16.38 9.003-3.872 5.14-6.615 10.525-5.494 19.408.187 1.477.497 4.204.98 5.395 1.65 4.06 4.631 8.096 8.03 10.97.944.798 2.733 2.116 3.69 2.649 1.066.595 1.267.522 2.225.948 1.266.563.907.573 2.108 1.049 7.82 3.098 21.208.301 27.863-8.061 1.274-1.6 1.872-2.175 2.587-3.725 2.038-4.419 4.16-7.987 2.87-15.558-.885-5.192-.722-5.556-3.08-9.599-.668-1.147-.682-.951-1.299-1.858L79.28 43.18c-.075-.08-.19-.186-.266-.265-.077-.077-.19-.185-.268-.262-.078-.076-.188-.186-.267-.262-2.34-2.236-6.43-4.977-9.855-5.926-3.408-.945-7.946-2.04-11.497-1.114z"/>
        </g>
        <path d="M52.115 56.853c7.616-2.026 3.813-.368 7.92-5.42 2.529.67 1.723 1.926 3.492 3.69 1.871 1.867 2.823.505 5.344 1.939-1.052 4.628-1.96 2.338-2.766 5.045-.76 2.552.696 3.06-.865 5.845-1.928-.422-2.682-1.598-5.097-1.406-2.774.22-4.932 3.63-5.26-1.17-.566-8.293-1.488-2.212-2.768-8.523zM45 54.546c.193 4.89 4.22 5.308 5.716 8.159.905 1.725.334 4.383.067 6.35-.497 3.661-.917 2.443 1.041 4.945 7.082-2.978 7.65-5.313 13-1.986 1.424.885 3.278 1.536 4.813 1.904.977-2.582 1.341-1.122.733-4.252-.415-2.135-.866-3.934-.493-6.372.683-1.966 10.663-8.176 3.618-9.298-.772-.123-2.14-.121-2.846-.198-7.53-.824-5.363-5.832-10.094-9.798-3.013 1.781-3.031 5.086-5.334 7.742C52.904 54.415 49 53.587 45 54.546z" fill="#B37C2F"/>
        <path d="M0 0h122v117H0z"/>
    </g>
</svg>
