<svg width="122" height="117" viewBox="0 0 122 117" xmlns="http://www.w3.org/2000/svg">
    <g fill="none" fill-rule="evenodd">
        <g fill="#3D4B66">
            <path d="M2 13.84v57.225C2 76.037 4.895 78 9.81 78h48.42c2.985 0 3.16-.724 2.443-3.08-2.719-.891-34.597-.416-42.009-.416-4.035 0-9.925.931-12.528-1.34-1.302-1.824-.684-43.534-.662-51.456.014-5.382-1.901-12.21 4.857-12.21h84.895c7.885 0 4.319 10.541 5.222 23.404 1.064.605 1.306.866 2.492 1.245 1.679-3.808.86-15.546.86-20.307 0-4.49-3.441-7.84-8.054-7.84H9.29C4.97 6 2 9.29 2 13.84"/>
            <path d="M67.214 65.09c-.466-4.816 2.526-12.023 5.562-15.643.582-.695.935-.953 1.528-1.59 9.688-10.399 27.383-8.899 35.27-.26 1.454 1.593 3.97 5.165 5.048 7.467 4.26 9.09 1.493 20.922-5.42 27.673l-3.475 2.804c-3.81 2.491-9.87 4.579-14.075 4.373-6.123-.299-12.985-2.994-17.046-7.353-4.883-5.242-6.536-8.593-7.392-17.47zm-3.205-2.611c0 6.193-.318 9.713 2.903 15.733 1.784 3.336 6.683 8.973 9.67 10.773 3.998 2.41 10.701 4.369 16.148 3.961 6.584-.492 12.545-1.77 17.247-6.304.607-.585 1.201-.925 1.977-1.684 1.905-1.865 4.334-5.604 5.43-8.129 1.687-3.883 2.619-6.3 2.616-11.738-.004-7.736-2.77-14.452-7.875-19.522-11.317-11.24-28.117-11.446-40.062-.476-3.43 3.15-8.054 10.68-8.054 17.386z"/>
            <path d="M108.84 111.999c2.55-3.025 1.912-6.823 1.906-11.51-.005-4.483 1.24-8.22-1.734-10.489-2.978 2.447-1.27 12.788-1.493 17.48-4.326-.363-6.134-3.37-8.872-5.294-3.811-2.678-6.13-5.485-8.58-4.297-6.026 2.917-14.696 15.875-14.696 5.277 0-3.98.975-9.854-1.066-12.92-2.66.544-2.139 1.72-2.093 4.924.104 7.22-1.535 16.829 2.904 16.829 3.291 0 4.843-2.114 8.519-4.792 8.495-6.189 6.554-6.873 12.437-2.326 4.285 3.312 8.55 7.194 12.769 7.118M24.635 28h45.788c1.885 0 3.519-.11 3.576-2.196.055-2.008-2.08-1.798-4.086-1.798H24.109c-4.119 0-4.345 3.994.526 3.994M22.333 40.803c-1.347 3.973 1.259 3.075 10.251 3.075 4.148 0 21.993.688 24.416-1.203-1.564-4.1-11.191-2.265-16.05-2.266-4.378 0-15.465-.607-18.617.394M21 57.414c3.292.86 23.77.787 26.952-.304L48 54.898c-3.664-1.248-21.637-1.036-26.335-.328L21 57.414"/>
        </g>
        <path d="M81.894 62.38c2.893-2.209 4.929-.584 7.884-3.041 3.429-2.85.2-4.908 5.47-5.752 4.7 11.353 5.93 4.631 10.875 8.658-.691 2.376-3.544 3.59-4.662 5.889-1.469 3.018 1.333 4.426.286 8.185-3.94.36-4.112-2.489-8.023-2.25-3.952.24-4.122 3.444-7.47 1.583-.43-1.942 1.977-5.047.166-8.117-1.122-1.903-3.522-2.873-4.526-5.155zm-4.867-2.336c-.136 3.15.203 2.987 1.884 4.547 8.124 7.541 2.853 6.982 3.47 13.485.473 4.987 5.974 2.357 8.117 1.092 4.688-2.77 6.1-.211 8.897 1.094 3.36 1.568 6.99.668 6.575-3.49-.474-4.767-3.383-5.168.707-9.186 11.681-11.476-3.803-9.52-5.703-10.643-2.091-1.77-2.217-5.264-4.17-7.455-4.558-5.113-7.737 4.523-8.299 5.37-3.381 5.098-5.903.432-11.478 5.186z" fill="#B37C2F"/>
        <path d="M0 0h122v117H0z"/>
    </g>
</svg>
