<svg width="122" height="117" viewBox="0 0 122 117" xmlns="http://www.w3.org/2000/svg">
    <g fill="none" fill-rule="evenodd">
        <path d="M66.589 84.04c3.512-2.467 13.493-2.062 23.225-12.315l2.046-2.133c2.103-2.425 1.68-3.302 3.977-4.205 1.348 2.02 2.115 3.77 3.049 6.809.51 1.658.952 1.84 1.491 3.23l6.102 16.391c.144 2.74-.138 1.322-.628 1.827-3.009 2.276-11.994-.024-16.225 1.484-1.34.478-3.727 2.578-5.132 3.757l-7.653 5.955c-3.057 1.524-4.226-3.303-5.795-7.355L67.438 87.47c-.846-1.625-1.158-1.294-.85-3.43zm-17.98 21.349c-2.142-.432-4.687-2.688-6.372-4.146-7.976-6.906-7.763-6.175-14.426-6.587-2.784-.172-7.718-.014-10.169-.697-1.277-3.596.527-4.38 1.49-7.184 1.02-2.966 1.699-4.263 2.5-6.918.508-1.681 4.583-12.559 5.249-13.58 2.751-.156 2.42-.229 3.732 1.54 8.7 11.735 16.208 12.274 26.288 16.02.197 2.798-4.119 12.586-5.482 16.451-.554 1.571-1.877 4.074-2.81 5.101zM26.205 44.563c0-2.861.729-4.46 1.331-7.01 1.199-5.071-.408-1.517 1.966-6.387 2.296-4.708 3.623-6.917 6.671-10.082 8.186-8.497 15.995-10.427 27.587-10.427 16.284 0 32.073 16.8 32.073 33.382 0 6.282-.817 9.602-3.41 15.665-3.005 7.021-8.48 12.562-15.317 16.055-8.285 4.233-10.496 3.83-19.093 3.83-9.357 0-21.138-7.645-25.89-15.868-.827-1.432-1.068-1.47-1.667-2.535-2.49-4.422-4.25-11.216-4.25-16.623zm-3.191-.524c0 7.965 1.967 12.188 2.382 14.872.204 1.323-1.032 4.668-1.679 6.274-.554 1.378-.86 1.26-1.402 2.755-.467 1.29-.453 1.986-.993 3.24l-5.795 15.134c-.541 2.005-.462 1.354-1.247 2.94-.845 1.71-1.475 4.25-2.28 6.12 2.94 3.122 4.072 2.188 11.001 2.639 14.136.92 9.138.092 19.29 7.885 3.074 2.36 5.328 4.849 8.38 5.034 1.969-2.951 4.194-11.052 6.35-15.499l4.127-10.24c2.518.983 2.84 3.094 3.775 5.879l2.681 6.744c1.96 4.175 3.042 10.226 5.932 13.184 2.579-.383 13.639-9.72 15.168-11.025 4.64-3.954 19.813.13 22.077-4.113 1.4-2.622-4.316-13.493-5.768-17.24-.503-1.297-.391-1.954-.928-3.244l-5.822-14.615c-1.73-5.985 5.377-22.727-5.949-37.492-5.892-7.681-7.2-8.016-15.43-12.802-7.493-4.359-22.705-4.753-30.775-.365-4.132 2.248-6.847 2.936-11.44 7.392-6.643 6.447-11.655 16.617-11.655 26.543z" fill="#3D4B66"/>
        <path d="M42.319 39.377c2.856-1.215 11.275-1.146 13.467-3.2 1.688-1.58 3.258-8.807 6.297-10.601 2.554 1.847 5.27 9.653 6.285 10.603 2.42 2.267 10.325 1.869 13.513 3.18-.61 3.537-6.14 6.17-7.992 9.275-2.238 3.747 2.325 11.64-.513 13.616-2.264 1.426-7.548-4.44-11.797-4.161-1.764.115-4.247 1.721-5.896 2.526-2.14 1.045-2.955 2.322-5.733 1.774-.995-3.875 2.39-10.55.02-13.98l-4.113-4.239c-1.032-1.023-3.265-2.83-3.538-4.793zm43.62-1.654c-3.867-3.415-6.222-2.288-11.83-3.155-3.748-.577-5.113-3.762-6.893-8.175-5.949-14.75-12.794 5.371-13.185 5.961-3.016 4.548-15.7.322-16.027 7.028-.241 4.954 9.425 7.373 9.108 13.525-.237 4.595-1.771 8.571-.693 13.188 8.784 3.3 12.055-7.416 18.816-3.294 1.523.928 1.791.996 3.407 1.828 2.058 1.06 4.397 3.307 7.555 1.945 4.929-2.125-1.04-12.785 1.244-16.452 2.95-4.735 9.248-5.966 8.497-12.4z" fill="#B37C2F"/>
        <path d="M0 0h122v117H0z"/>
    </g>
</svg>
