<svg width="90" height="97" viewBox="0 0 90 97" xmlns="http://www.w3.org/2000/svg" xmlns:xlink="http://www.w3.org/1999/xlink">
    <defs>
        <path id="wqey3fh43a" d="M0 0h54v59H0z"/>
        <path id="w2z2ftswzc" d="M0 0h72v79H0z"/>
    </defs>
    <g fill="none" fill-rule="evenodd">
        <g transform="matrix(-1 0 0 1 90 38)">
            <mask id="x23kfx009b" fill="#fff">
                <use xlink:href="#wqey3fh43a"/>
            </mask>
            <path d="M25.342 42.15c-1.13-.246-2.004-.989-2.895-1.647-.638-.47-1.206-1.037-1.79-1.577-.338-.316-.35-.733-.134-1.098.222-.36.647-.593 1.038-.435 1.817.743 3.568 1.603 4.915 3.083.102.114.142.286.173.356.337 1.019-.221 1.555-1.307 1.317m-6.915-5.362c-.404.47-.878.277-1.335.132-1.046-.343-1.892-1.045-2.796-1.63-3.374-2.19-6.65-4.492-8.635-8.128-.115-.21-.248-.413-.35-.628-.133-.286-.249-.584-.31-.734-1.38-3.846 1.489-8.163 5.43-8.387.398-.022.806-.04 1.16.193.626.413.546.843-.048 1.168-.301.171-.687.21-1.037.285-3.01.624-4.468 3.645-3.059 6.368 1.91 3.693 5.15 6.03 8.56 8.186.81.514 1.697.936 2.234 1.774.266.418.638.87.186 1.401M53.95 17.455c-.266-6.363-2.491-11.738-8.13-15.274-4.938-3.1-10.03-2.74-14.845.097-4.65 2.736-6.72 7.119-6.746 12.46-.009 1.497-.377 1.742-1.844 1.448-1.356-.268-2.606-.79-3.839-1.392-4.539-2.222-8.914-2.12-13.27.633C.527 18.426-1.175 23.208.82 28.434c1.242 3.255 3.356 5.837 5.931 8.142 3.799 3.4 8.325 5.71 12.567 8.437C27.19 50.08 36.139 53.26 43.82 59c.882-7.26 3.865-13.724 6.206-20.715-2.571 1.335-4.845 2.332-7.248 3.026-.305.087-.647.263-.855-.106-.244-.426.248-.553.439-.711 2.349-1.937 4.831-3.742 7.526-5.125 1.428-.734 1.45-1.761 1.804-3.04-1.334.414-2.415 1.055-3.634 1.274-.249.044-.541.299-.723-.087-.173-.37.177-.462.368-.637a20.689 20.689 0 0 1 3.555-2.635c1.294-.751 1.365-1.889 1.454-3.224-3.382 1.318-6.268 3.426-9.725 4.55-.089-.694.35-.825.638-1.058 1.729-1.423 3.652-2.574 5.434-3.909 1.49-1.115 3.768-1.414 4.415-3.342.62-1.831.554-3.847.475-5.806" fill="#B37C2F" mask="url(#x23kfx009b)"/>
        </g>
        <g transform="matrix(-1 0 0 1 72 0)">
            <mask id="a0pmip0lfd" fill="#fff">
                <use xlink:href="#w2z2ftswzc"/>
            </mask>
            <path d="M68.642 32.008c-.785 2.37-3.548 2.737-5.354 4.108-2.161 1.641-4.494 3.056-6.59 4.805-.35.286-.882.448-.775 1.3 4.193-1.381 7.693-3.973 11.794-5.592-.107 1.641-.193 3.04-1.763 3.962a25.115 25.115 0 0 0-4.311 3.24c-.231.215-.656.329-.446.782.22.475.575.162.876.108 1.478-.27 2.79-1.058 4.408-1.565-.43 1.57-.457 2.834-2.188 3.735-3.268 1.7-6.279 3.92-9.128 6.3-.231.195-.828.351-.532.875.252.454.666.238 1.037.13 2.914-.853 5.672-2.079 8.79-3.72-2.839 8.595-6.457 16.541-7.526 25.465-9.317-7.056-20.17-10.964-29.718-17.194-5.144-3.353-10.633-6.192-15.24-10.37-3.123-2.835-5.688-6.01-7.193-10.01-2.42-6.424-.355-12.303 5.403-15.99 5.284-3.385 10.59-3.51 16.095-.778 1.494.74 3.01 1.382 4.655 1.712 1.78.361 2.226.06 2.237-1.782.032-6.564 2.542-11.952 8.182-15.315 5.838-3.488 12.015-3.93 18.003-.12 6.838 4.347 9.537 10.954 9.86 18.777.096 2.408.177 4.886-.576 7.137M62.928 4.405c-7.37-6.457-18.1-4.999-23.976-.847-5.3 3.74-8.129 8.988-8.543 15.715a27.447 27.447 0 0 1-.795-.427C22.594 15.018 15.68 14.5 8.53 18.82 1.337 23.165-1.78 31.031 1.02 39.004 2.95 44.5 6.498 48.77 11.089 52.225c8.94 6.743 18.713 12.071 28.75 16.93 5.886 2.85 11.756 5.706 17.09 9.55.725.524 1.424.34 1.827-.47.21-.426.312-.928.366-1.409.699-6.316 2.913-12.179 5.316-17.971 4.107-9.901 6.682-20.191 7.456-30.864.662-9.161-1.72-17.243-8.966-23.586" fill="#B37C2F" mask="url(#a0pmip0lfd)"/>
        </g>
    </g>
</svg>
