<svg width="102" height="112" viewBox="0 0 102 112" xmlns="http://www.w3.org/2000/svg" xmlns:xlink="http://www.w3.org/1999/xlink">
    <defs>
        <path id="ywrlfkstxa" d="M0 0h102v112H0z"/>
    </defs>
    <g fill="none" fill-rule="evenodd">
        <mask id="uptsejqtab" fill="#fff">
            <use xlink:href="#ywrlfkstxa"/>
        </mask>
        <path d="M47.867 80.012c-2.135-.466-3.784-1.875-5.467-3.126-1.205-.892-2.277-1.967-3.383-2.993-.636-.6-.661-1.392-.25-2.084.418-.683 1.222-1.125 1.959-.825 3.432 1.409 6.74 3.043 9.285 5.852.192.217.268.542.326.675.637 1.934-.418 2.952-2.47 2.501M34.806 69.834c-.762.891-1.658.525-2.52.25-1.976-.65-3.575-1.984-5.283-3.093-6.372-4.16-12.56-8.529-16.31-15.431-.218-.4-.47-.784-.662-1.192-.25-.542-.469-1.11-.586-1.393-2.604-7.302 2.814-15.497 10.257-15.923.753-.041 1.524-.074 2.193.367 1.181.784 1.03 1.601-.092 2.218-.569.325-1.297.4-1.959.542-5.685 1.183-8.44 6.92-5.777 12.088 3.609 7.01 9.729 11.446 16.167 15.539 1.533.975 3.207 1.776 4.22 3.368.503.792 1.206 1.65.352 2.66m67.099-36.698c-.503-12.08-4.706-22.284-15.356-28.995-9.327-5.885-18.947-5.202-28.04.184-8.783 5.193-12.693 13.513-12.743 23.65-.017 2.843-.712 3.31-3.483 2.751-2.562-.508-4.923-1.5-7.25-2.642-8.574-4.219-16.838-4.027-25.069 1.2C.997 34.978-2.218 44.057 1.55 53.977c2.344 6.178 6.338 11.08 11.202 15.456 7.176 6.453 15.724 10.838 23.737 16.015 14.87 9.62 31.774 15.656 46.284 26.552 1.666-13.78 7.301-26.052 11.722-39.324-4.856 2.535-9.151 4.427-13.69 5.744-.577.167-1.222.5-1.615-.2-.46-.809.468-1.05.829-1.35 4.437-3.677 9.126-7.103 14.216-9.73 2.696-1.392 2.738-3.342 3.408-5.768-2.52.783-4.563 2-6.866 2.417-.469.084-1.021.567-1.364-.166-.327-.7.334-.876.695-1.209a39.092 39.092 0 0 1 6.714-5.002c2.445-1.426 2.58-3.585 2.747-6.12-6.389 2.502-11.84 6.503-18.37 8.638-.167-1.318.662-1.568 1.206-2.01 3.265-2.7 6.899-4.885 10.265-7.42 2.813-2.117 7.116-2.683 8.339-6.343 1.172-3.477 1.046-7.303.896-11.021" fill="#B37C2F" mask="url(#uptsejqtab)"/>
    </g>
</svg>
