<svg width="32" height="32" viewBox="0 0 32 32" xmlns="http://www.w3.org/2000/svg">
    <g fill="none" fill-rule="evenodd">
        <path d="M0 0h32v32H0z"/>
        <path d="M15.987 2.667C8.627 2.667 2.667 8.64 2.667 16s5.96 13.333 13.32 13.333c7.373 0 13.346-5.973 13.346-13.333S23.36 2.667 15.987 2.667zm.013 24c-5.893 0-10.667-4.774-10.667-10.667S10.107 5.333 16 5.333 26.667 10.107 26.667 16 21.893 26.667 16 26.667zm.667-17.334h-2v8l7 4.2 1-1.64-6-3.56v-7z" fill="#FFF" fill-rule="nonzero"/>
    </g>
</svg>
