<svg width="36" height="36" viewBox="0 0 36 36" xmlns="http://www.w3.org/2000/svg">
    <g fill="none" fill-rule="evenodd">
        <path d="M0 0h36v36H0z"/>
        <path d="M23.25 21h-1.185l-.42-.405A9.707 9.707 0 0 0 24 14.25a9.75 9.75 0 0 0-9.75-9.75 9.75 9.75 0 0 0-9.75 9.75A9.75 9.75 0 0 0 14.25 24a9.707 9.707 0 0 0 6.345-2.355l.405.42v1.185l7.5 7.485 2.235-2.235L23.25 21zm-9 0a6.741 6.741 0 0 1-6.75-6.75 6.741 6.741 0 0 1 6.75-6.75A6.741 6.741 0 0 1 21 14.25 6.741 6.741 0 0 1 14.25 21z" fill="#000" fill-rule="nonzero"/>
    </g>
</svg>
