<?xml version="1.0" encoding="utf-8"?><svg viewBox="0 0 512 512" xmlns="http://www.w3.org/2000/svg" xmlns:xlink="http://www.w3.org/1999/xlink"><style>:root>svg{display:none}:root>svg:target{display:block}</style><svg viewBox="0 0 34 34" id="sprite--arrow-forward" xmlns="http://www.w3.org/2000/svg"><g fill="none" fill-rule="evenodd"><path d="M0 0h34v34H0z"/><path fill="#FFF" fill-rule="nonzero" d="M9 29.433L11.556 32 26 17.5 11.556 3 9 5.566 20.887 17.5z"/></g></svg><svg viewBox="0 0 122 117" id="sprite--award-icon-certificate" xmlns="http://www.w3.org/2000/svg"><g fill="none" fill-rule="evenodd"><g fill="#3D4B66"><path d="M2 13.84v57.225C2 76.037 4.895 78 9.81 78h48.42c2.985 0 3.16-.724 2.443-3.08-2.719-.891-34.597-.416-42.009-.416-4.035 0-9.925.931-12.528-1.34-1.302-1.824-.684-43.534-.662-51.456.014-5.382-1.901-12.21 4.857-12.21h84.895c7.885 0 4.319 10.541 5.222 23.404 1.064.605 1.306.866 2.492 1.245 1.679-3.808.86-15.546.86-20.307 0-4.49-3.441-7.84-8.054-7.84H9.29C4.97 6 2 9.29 2 13.84"/><path d="M67.214 65.09c-.466-4.816 2.526-12.023 5.562-15.643.582-.695.935-.953 1.528-1.59 9.688-10.399 27.383-8.899 35.27-.26 1.454 1.593 3.97 5.165 5.048 7.467 4.26 9.09 1.493 20.922-5.42 27.673l-3.475 2.804c-3.81 2.491-9.87 4.579-14.075 4.373-6.123-.299-12.985-2.994-17.046-7.353-4.883-5.242-6.536-8.593-7.392-17.47zm-3.205-2.611c0 6.193-.318 9.713 2.903 15.733 1.784 3.336 6.683 8.973 9.67 10.773 3.998 2.41 10.701 4.369 16.148 3.961 6.584-.492 12.545-1.77 17.247-6.304.607-.585 1.201-.925 1.977-1.684 1.905-1.865 4.334-5.604 5.43-8.129 1.687-3.883 2.619-6.3 2.616-11.738-.004-7.736-2.77-14.452-7.875-19.522-11.317-11.24-28.117-11.446-40.062-.476-3.43 3.15-8.054 10.68-8.054 17.386z"/><path d="M108.84 111.999c2.55-3.025 1.912-6.823 1.906-11.51-.005-4.483 1.24-8.22-1.734-10.489-2.978 2.447-1.27 12.788-1.493 17.48-4.326-.363-6.134-3.37-8.872-5.294-3.811-2.678-6.13-5.485-8.58-4.297-6.026 2.917-14.696 15.875-14.696 5.277 0-3.98.975-9.854-1.066-12.92-2.66.544-2.139 1.72-2.093 4.924.104 7.22-1.535 16.829 2.904 16.829 3.291 0 4.843-2.114 8.519-4.792 8.495-6.189 6.554-6.873 12.437-2.326 4.285 3.312 8.55 7.194 12.769 7.118M24.635 28h45.788c1.885 0 3.519-.11 3.576-2.196.055-2.008-2.08-1.798-4.086-1.798H24.109c-4.119 0-4.345 3.994.526 3.994m-2.302 12.803c-1.347 3.973 1.259 3.075 10.251 3.075 4.148 0 21.993.688 24.416-1.203-1.564-4.1-11.191-2.265-16.05-2.266-4.378 0-15.465-.607-18.617.394M21 57.414c3.292.86 23.77.787 26.952-.304L48 54.898c-3.664-1.248-21.637-1.036-26.335-.328L21 57.414"/></g><path d="M81.894 62.38c2.893-2.209 4.929-.584 7.884-3.041 3.429-2.85.2-4.908 5.47-5.752 4.7 11.353 5.93 4.631 10.875 8.658-.691 2.376-3.544 3.59-4.662 5.889-1.469 3.018 1.333 4.426.286 8.185-3.94.36-4.112-2.489-8.023-2.25-3.952.24-4.122 3.444-7.47 1.583-.43-1.942 1.977-5.047.166-8.117-1.122-1.903-3.522-2.873-4.526-5.155zm-4.867-2.336c-.136 3.15.203 2.987 1.884 4.547 8.124 7.541 2.853 6.982 3.47 13.485.473 4.987 5.974 2.357 8.117 1.092 4.688-2.77 6.1-.211 8.897 1.094 3.36 1.568 6.99.668 6.575-3.49-.474-4.767-3.383-5.168.707-9.186 11.681-11.476-3.803-9.52-5.703-10.643-2.091-1.77-2.217-5.264-4.17-7.455-4.558-5.113-7.737 4.523-8.299 5.37-3.381 5.098-5.903.432-11.478 5.186z" fill="#B37C2F"/><path d="M0 0h122v117H0z"/></g></svg><svg viewBox="0 0 122 117" id="sprite--award-icon-ribbon" xmlns="http://www.w3.org/2000/svg"><g fill="none" fill-rule="evenodd"><path d="M66.589 84.04c3.512-2.467 13.493-2.062 23.225-12.315l2.046-2.133c2.103-2.425 1.68-3.302 3.977-4.205 1.348 2.02 2.115 3.77 3.049 6.809.51 1.658.952 1.84 1.491 3.23l6.102 16.391c.144 2.74-.138 1.322-.628 1.827-3.009 2.276-11.994-.024-16.225 1.484-1.34.478-3.727 2.578-5.132 3.757l-7.653 5.955c-3.057 1.524-4.226-3.303-5.795-7.355L67.438 87.47c-.846-1.625-1.158-1.294-.85-3.43zm-17.98 21.349c-2.142-.432-4.687-2.688-6.372-4.146-7.976-6.906-7.763-6.175-14.426-6.587-2.784-.172-7.718-.014-10.169-.697-1.277-3.596.527-4.38 1.49-7.184 1.02-2.966 1.699-4.263 2.5-6.918.508-1.681 4.583-12.559 5.249-13.58 2.751-.156 2.42-.229 3.732 1.54 8.7 11.735 16.208 12.274 26.288 16.02.197 2.798-4.119 12.586-5.482 16.451-.554 1.571-1.877 4.074-2.81 5.101zM26.205 44.563c0-2.861.729-4.46 1.331-7.01 1.199-5.071-.408-1.517 1.966-6.387 2.296-4.708 3.623-6.917 6.671-10.082 8.186-8.497 15.995-10.427 27.587-10.427 16.284 0 32.073 16.8 32.073 33.382 0 6.282-.817 9.602-3.41 15.665-3.005 7.021-8.48 12.562-15.317 16.055-8.285 4.233-10.496 3.83-19.093 3.83-9.357 0-21.138-7.645-25.89-15.868-.827-1.432-1.068-1.47-1.667-2.535-2.49-4.422-4.25-11.216-4.25-16.623zm-3.191-.524c0 7.965 1.967 12.188 2.382 14.872.204 1.323-1.032 4.668-1.679 6.274-.554 1.378-.86 1.26-1.402 2.755-.467 1.29-.453 1.986-.993 3.24l-5.795 15.134c-.541 2.005-.462 1.354-1.247 2.94-.845 1.71-1.475 4.25-2.28 6.12 2.94 3.122 4.072 2.188 11.001 2.639 14.136.92 9.138.092 19.29 7.885 3.074 2.36 5.328 4.849 8.38 5.034 1.969-2.951 4.194-11.052 6.35-15.499l4.127-10.24c2.518.983 2.84 3.094 3.775 5.879l2.681 6.744c1.96 4.175 3.042 10.226 5.932 13.184 2.579-.383 13.639-9.72 15.168-11.025 4.64-3.954 19.813.13 22.077-4.113 1.4-2.622-4.316-13.493-5.768-17.24-.503-1.297-.391-1.954-.928-3.244l-5.822-14.615c-1.73-5.985 5.377-22.727-5.949-37.492-5.892-7.681-7.2-8.016-15.43-12.802-7.493-4.359-22.705-4.753-30.775-.365-4.132 2.248-6.847 2.936-11.44 7.392-6.643 6.447-11.655 16.617-11.655 26.543z" fill="#3D4B66"/><path d="M42.319 39.377c2.856-1.215 11.275-1.146 13.467-3.2 1.688-1.58 3.258-8.807 6.297-10.601 2.554 1.847 5.27 9.653 6.285 10.603 2.42 2.267 10.325 1.869 13.513 3.18-.61 3.537-6.14 6.17-7.992 9.275-2.238 3.747 2.325 11.64-.513 13.616-2.264 1.426-7.548-4.44-11.797-4.161-1.764.115-4.247 1.721-5.896 2.526-2.14 1.045-2.955 2.322-5.733 1.774-.995-3.875 2.39-10.55.02-13.98l-4.113-4.239c-1.032-1.023-3.265-2.83-3.538-4.793zm43.62-1.654c-3.867-3.415-6.222-2.288-11.83-3.155-3.748-.577-5.113-3.762-6.893-8.175-5.949-14.75-12.794 5.371-13.185 5.961-3.016 4.548-15.7.322-16.027 7.028-.241 4.954 9.425 7.373 9.108 13.525-.237 4.595-1.771 8.571-.693 13.188 8.784 3.3 12.055-7.416 18.816-3.294 1.523.928 1.791.996 3.407 1.828 2.058 1.06 4.397 3.307 7.555 1.945 4.929-2.125-1.04-12.785 1.244-16.452 2.95-4.735 9.248-5.966 8.497-12.4z" fill="#B37C2F"/><path d="M0 0h122v117H0z"/></g></svg><svg viewBox="0 0 122 117" id="sprite--award-icon-star" xmlns="http://www.w3.org/2000/svg"><g fill="none" fill-rule="evenodd"><g fill="#3D4B66"><path d="M70.065 97.524c.62-2.551 1.695-3.656 3.365-4.935 1.404-1.077 3.696-2.396 5.794-2.152 2.232.261 10.149 3.958 11.603 5.176-1.7 3.801-4 4.404-9.794 6.66-3.978 1.55-9.115-1.807-10.968-4.749zm42.624-17.359c-1.322 2.837-4.63 7.049-7.24 8.539-1.911 1.09-3.174 1.897-6.129 1.145-9.185-2.34-2.249-11.154 2.267-12.342 1.882-.495 5.198-.62 7.485-.616 3.369.007 5.158-.032 3.617 3.274zm2.268-21.041c-.616 5.26-1.655 7.366-6.798 9.17-2.895 1.016-3.9.866-5.028-1.152-4.233-7.581 2.707-11.828 7.148-14.674 6.574-4.212 5.305 1.292 4.678 6.656zM98.467 49.12c-2.376-1.905-6.669-5.941-4.632-10.894 1.255-3.048 4.47-9.011 6.746-10.152 1.223.846 2.729 3.486 3.269 5.141.328 1.006 1.878 6.055 1.917 6.537.341 4.306-4.103 8.202-7.3 9.368zm-9.676-21.56c0 8.115-11.432 7.35-13.449-4.346-.259-1.499-.667-2.608-.924-3.786-.602-2.765-.194-2.153-.108-2.793l.263-.904c3.23-.552 6.643 1.91 9.047 3.446 3.487 2.227 5.17 4.157 5.17 8.383zm-3.529 8.773l4.867.17c.904 2.503-1.907 5.71 2.501 11.594 5.025 6.707 5.134 4.205 10.47 4.249-.362.817-2.105 2.594-2.796 3.888-2.365 4.432-1.755 6.669-.818 11.318.889 4.412 1.122 1.942 2.725 4.722-1.575 3.932-4.813 1.308-8.252 6.573-2.892 4.429-2.209 6.229-3.016 11.684-3.956.262-3.4-1.37-6.973-2.264C70.625 84.93 65.908 94.96 66 96.998c.813 2.717 3.693 5.735 6.134 7.286 6.644 4.223 14.506-.278 20.056-3.55 9.265-5.463-.104-6.982 4.3-7.852 2.633-.52 4.048 1.692 10.268-.768 4.406-1.742 11.927-13.652 11.649-16.064-.41-3.568-6.275-2.455-10.414-3.827C110.164 70.4 119 70.297 119 55.441c0-13.533-.325-10.837-11.503-5.75-1.175.534-.682.34-1.05.547-1.62.914.167.504-2.402 1.25.642-3.016-.286-.197 1.483-2.713l.435-.619c1.816-2.547 2.317-2.808 2.745-6.348.548-4.526-3.775-19.798-8.36-18.617-3.921 1.01-3.468 6.413-7.691 6.665l-.303-1.311c-.452-3.635-.207-6.317-3.58-9.742-3.114-3.163-13.796-9.634-16.991-7.31-2.277 1.658-.943 5.14-.52 7.957.72 4.796 1.104 11.781 5.992 14.52 2.1 1.175 5.528 2.364 8.007 2.364zm-53.93 59.005c1.603-1.431 8.87-4.869 11.481-4.9 2.55-.033 4.904 1.493 6.583 3.028 3.7 3.382 1.02 6.165-2.87 8.23-3.703 1.965-8.343-.007-11.652-2.044-1.979-1.218-3.695-1.126-3.542-4.314zM23.935 79.63c1.182 1.13 6.288 7.263-.188 9.712-8.313 3.142-14.302-7.739-15.496-11.477 1.54-1.396 11.804-1.937 15.684 1.765zm-5.847-11.233c-4.14.98-8.675-1.993-9.988-4.39-1.093-1.996-2.292-10.363-1.614-12.49 2.736-1.283 4.447.273 6.25 1.531 4.25 2.97 10.139 6.682 5.352 15.349zm5.982-19.279c-12.903-2.876-6.492-17.742-2.695-20.996 2.537 1.201 5.372 7.691 6.453 10.312 1.939 4.7-2.034 7.97-3.758 10.684zm9.486-17.45c-1.264-6.155-.145-9.537 3.526-11.967 2.483-1.645 7.064-5.16 10.226-3.498-.977 4.815-.273 9.258-3.008 12.849-2.261 2.969-7.149 4.929-10.744 2.617zm-4.859-1.482c-1.944-.167-2.779-2.403-3.628-3.703-6.36-9.735-9.55 3.838-11.504 10.054-2.654 8.447 3.06 11.25 4.533 14.533C13.826 51.455 3 39.842 3 49.633 3 70.06 7.187 67.746 13.902 72.07c-3.83 1.338-5.677.984-9.404 1.652-1.713 4.623.875 6.471 3.483 10.902.776 1.319 1.295 2.015 2.384 3.378 6.29 7.872 12.24 4.267 16.222 4.83-.763 6.022-4.563 2.858 5.395 9.193 7.85 4.993 14.066 5.795 20.582-.577l.263-.257c.23-.223.646-.575.81-.755 4.643-5.065-3.198-15.202-14.13-12.653-6.956 1.622-5.086 3.235-8.415 2.534l-.356-1.337c-.475-3.69-.551-10.252-6.736-13.62-2.159-1.175-3.105-.667-4.235-3.138 1.222-2.933 1.81-.223 2.596-4.225 2.152-10.97-1.639-12.019-3.389-15.633 2.533-.274 3.705.985 6.047-.103 1.942-.903 2.864-2.48 3.943-3.941 4.268-5.777 1.398-5.613 2.565-11.634 2.863-1.065 11.065.952 15.684-5.759 2.178-3.163 4.347-13.503 3.45-18.076-.98-5.006-11.785 1.563-14.251 3.015-8.274 4.876-5.785 11.138-7.713 14.318z"/><path d="M38.303 61.357c0-5.317 1.79-11.16 5.506-14.992l4.082-3.836c8.565-5.697 19.9-5.317 27.443 1.94 6.897 6.639 9.421 16.683 5.052 25.658-6.361 13.07-24.348 16.755-35.368 6.082-2.91-2.818-6.715-9.091-6.715-14.852zm18.824-26.006c-6.038 1.574-11.63 2.699-16.38 9.003-3.872 5.14-6.615 10.525-5.494 19.408.187 1.477.497 4.204.98 5.395 1.65 4.06 4.631 8.096 8.03 10.97.944.798 2.733 2.116 3.69 2.649 1.066.595 1.267.522 2.225.948 1.266.563.907.573 2.108 1.049 7.82 3.098 21.208.301 27.863-8.061 1.274-1.6 1.872-2.175 2.587-3.725 2.038-4.419 4.16-7.987 2.87-15.558-.885-5.192-.722-5.556-3.08-9.599-.668-1.147-.682-.951-1.299-1.858L79.28 43.18c-.075-.08-.19-.186-.266-.265-.077-.077-.19-.185-.268-.262-.078-.076-.188-.186-.267-.262-2.34-2.236-6.43-4.977-9.855-5.926-3.408-.945-7.946-2.04-11.497-1.114z"/></g><path d="M52.115 56.853c7.616-2.026 3.813-.368 7.92-5.42 2.529.67 1.723 1.926 3.492 3.69 1.871 1.867 2.823.505 5.344 1.939-1.052 4.628-1.96 2.338-2.766 5.045-.76 2.552.696 3.06-.865 5.845-1.928-.422-2.682-1.598-5.097-1.406-2.774.22-4.932 3.63-5.26-1.17-.566-8.293-1.488-2.212-2.768-8.523zM45 54.546c.193 4.89 4.22 5.308 5.716 8.159.905 1.725.334 4.383.067 6.35-.497 3.661-.917 2.443 1.041 4.945 7.082-2.978 7.65-5.313 13-1.986 1.424.885 3.278 1.536 4.813 1.904.977-2.582 1.341-1.122.733-4.252-.415-2.135-.866-3.934-.493-6.372.683-1.966 10.663-8.176 3.618-9.298-.772-.123-2.14-.121-2.846-.198-7.53-.824-5.363-5.832-10.094-9.798-3.013 1.781-3.031 5.086-5.334 7.742C52.904 54.415 49 53.587 45 54.546z" fill="#B37C2F"/><path d="M0 0h122v117H0z"/></g></svg><svg viewBox="0 0 122 117" id="sprite--award-icon-trophy" xmlns="http://www.w3.org/2000/svg"><g fill="none" fill-rule="evenodd"><path d="M84.86 105.837c-7.492 0-45.548.59-49.81-.479-.662-6.935 5.313-6.298 14.518-6.298 5.548 0 30.043-.256 33.625.291 5.605.858 8.868 6.486 1.667 6.486zM46 92.284c.006-.155 1.143-3.573 4.776-3.995 2.484-.288 6.866-.045 9.549-.045 5.22 0 14.738-1.452 16.351 2.724 2.018 5.226-5.733 3.75-13.973 3.75-3.326 0-16.83 1.505-16.702-2.434zM20.034 19.56c4.174-1.1 7.575-.834 8.252 3.13.64 3.746.933 11.093 2.511 16.294.498 1.64 6.379 12.1-3.411 8.118C19.857 44.04 12.07 32.527 13.09 24.555c.48-3.748 3.468-4.08 6.943-4.995zm68.979 28.31c-.185-1.976 1.84-7.714 2.783-9.873 3.994-9.15-1.796-18.134 6.335-18.923 3.44-.334 7.576.466 9.728 2.277 2.89 2.43 2.411 5.32 1.148 9.055-1.154 3.415-2.041 5.673-4.14 8.513-3.899 5.273-8.45 9.926-15.854 8.95zm-32.02 34.822c-1.345-1.36 1.703-10.108-5.006-18.61-4.211-5.338-8.06-6.912-11.404-13.413L36.82 42.03c-3.96-8.685-5.725-22.784-.911-30.672L83.229 11c4.727.063 5.226.401 5.743 4.647 1.293 10.63 1.48 6.684-.099 18.041-.852 6.122-5.506 15.792-9.188 21.456-2.013 3.099-2.373 2.907-5.16 5.434-8.373 7.594-7.233 12.782-7.486 20.101-.064 1.834.267 1.578-.638 2.515-1.068 1.105-8.048 1.197-9.408-.502zM9 24.545c0 11.76 9.92 25.542 20.345 27.515 6.06 1.147 6.176-.876 8.525 2.784 7.488 11.665 16.399 11.571 13.844 28.62-2.68.956-5.058 1.651-7.136 3.432-2.69 2.305-1.941 4.985-3.668 7.01-3.264 3.826-10.524-.768-10.524 11.868 0 1.425.576 2.955 1.023 4.041h50.393c7.398-.006 10.44 1.81 10.44-5.82 0-1.92-2.193-5.828-3.151-6.707-1.627-1.491-5.132-1.928-7.43-2.604-1.88-4.609-.541-5.614-4.996-8.689-5.032-3.474-6.139.546-6.139-9.867 0-8.947 7.588-12.2 11.601-17.457 3.19-4.178 1.7-5.777 8.539-6.345 10.419-.867 20-11.864 21.873-21.978 2.026-10.938-2.658-15.139-13.542-14.678-9.139.386-3.673.257-7.823-5.238-2.994-3.964-5.728-3.336-11.742-3.328-4.21.005-41.984-.369-44.26.272-5.923 1.668-3.695 6.962-6.744 8.26-1.05.448-8.984-.022-12.654.934C12.331 17.467 9 21.547 9 24.545z" fill="#3D4B66"/><path d="M52.115 34.853c7.616-2.026 3.813-.368 7.92-5.42 2.529.67 1.723 1.926 3.492 3.69 1.871 1.867 2.823.505 5.344 1.939-1.052 4.628-1.96 2.338-2.766 5.045-.76 2.552.696 3.06-.865 5.845-1.928-.422-2.682-1.598-5.097-1.406-2.774.22-4.932 3.63-5.26-1.17-.566-8.293-1.488-2.212-2.768-8.523zM45 32.546c.193 4.89 4.22 5.308 5.716 8.159.905 1.725.334 4.383.067 6.35-.497 3.661-.917 2.443 1.041 4.945 7.082-2.978 7.65-5.313 13-1.986 1.424.885 3.278 1.536 4.813 1.904.977-2.582 1.341-1.122.733-4.252-.415-2.135-.866-3.934-.493-6.372.683-1.966 10.663-8.176 3.618-9.298-.772-.123-2.14-.121-2.846-.198-7.53-.824-5.363-5.832-10.094-9.798-3.013 1.781-3.031 5.086-5.334 7.742C52.904 32.415 49 31.587 45 32.546z" fill="#B37C2F"/><path d="M0 0h122v117H0z"/></g></svg><svg viewBox="0 0 320 512" id="sprite--facebook" xmlns="http://www.w3.org/2000/svg"><path fill="#fff" d="M279.14 288l14.22-92.66h-88.91v-60.13c0-25.35 12.42-50.06 52.24-50.06h40.42V6.26S260.43 0 225.36 0c-73.22 0-121.08 44.38-121.08 124.72v70.62H22.89V288h81.39v224h100.17V288z"/></svg><svg viewBox="0 0 448 512" id="sprite--instagram" xmlns="http://www.w3.org/2000/svg"><path fill="#fff" d="M224.1 141c-63.6 0-114.9 51.3-114.9 114.9s51.3 114.9 114.9 114.9S339 319.5 339 255.9 287.7 141 224.1 141zm0 189.6c-41.1 0-74.7-33.5-74.7-74.7s33.5-74.7 74.7-74.7 74.7 33.5 74.7 74.7-33.6 74.7-74.7 74.7zm146.4-194.3c0 14.9-12 26.8-26.8 26.8-14.9 0-26.8-12-26.8-26.8s12-26.8 26.8-26.8 26.8 12 26.8 26.8zm76.1 27.2c-1.7-35.9-9.9-67.7-36.2-93.9-26.2-26.2-58-34.4-93.9-36.2-37-2.1-147.9-2.1-184.9 0-35.8 1.7-67.6 9.9-93.9 36.1s-34.4 58-36.2 93.9c-2.1 37-2.1 147.9 0 184.9 1.7 35.9 9.9 67.7 36.2 93.9s58 34.4 93.9 36.2c37 2.1 147.9 2.1 184.9 0 35.9-1.7 67.7-9.9 93.9-36.2 26.2-26.2 34.4-58 36.2-93.9 2.1-37 2.1-147.8 0-184.8zM398.8 388c-7.8 19.6-22.9 34.7-42.6 42.6-29.5 11.7-99.5 9-132.1 9s-102.7 2.6-132.1-9c-19.6-7.8-34.7-22.9-42.6-42.6-11.7-29.5-9-99.5-9-132.1s-2.6-102.7 9-132.1c7.8-19.6 22.9-34.7 42.6-42.6 29.5-11.7 99.5-9 132.1-9s102.7-2.6 132.1 9c19.6 7.8 34.7 22.9 42.6 42.6 11.7 29.5 9 99.5 9 132.1s2.7 102.7-9 132.1z"/></svg><svg viewBox="0 0 32 32" id="sprite--schedule" xmlns="http://www.w3.org/2000/svg"><g fill="none" fill-rule="evenodd"><path d="M0 0h32v32H0z"/><path d="M15.987 2.667C8.627 2.667 2.667 8.64 2.667 16s5.96 13.333 13.32 13.333c7.373 0 13.346-5.973 13.346-13.333S23.36 2.667 15.987 2.667zm.013 24c-5.893 0-10.667-4.774-10.667-10.667S10.107 5.333 16 5.333 26.667 10.107 26.667 16 21.893 26.667 16 26.667zm.667-17.334h-2v8l7 4.2 1-1.64-6-3.56v-7z" fill="#FFF" fill-rule="nonzero"/></g></svg><svg viewBox="0 0 36 36" id="sprite--search-black" xmlns="http://www.w3.org/2000/svg"><g fill="none" fill-rule="evenodd"><path d="M0 0h36v36H0z"/><path d="M23.25 21h-1.185l-.42-.405A9.707 9.707 0 0024 14.25a9.75 9.75 0 00-9.75-9.75 9.75 9.75 0 00-9.75 9.75A9.75 9.75 0 0014.25 24a9.707 9.707 0 006.345-2.355l.405.42v1.185l7.5 7.485 2.235-2.235L23.25 21zm-9 0a6.741 6.741 0 01-6.75-6.75 6.741 6.741 0 016.75-6.75A6.741 6.741 0 0121 14.25 6.741 6.741 0 0114.25 21z" fill="#000" fill-rule="nonzero"/></g></svg><svg viewBox="0 0 512 512" id="sprite--twitter" xmlns="http://www.w3.org/2000/svg"><path fill="#fff" d="M459.37 151.716c.325 4.548.325 9.097.325 13.645 0 138.72-105.583 298.558-298.558 298.558-59.452 0-114.68-17.219-161.137-47.106 8.447.974 16.568 1.299 25.34 1.299 49.055 0 94.213-16.568 130.274-44.832-46.132-.975-84.792-31.188-98.112-72.772 6.498.974 12.995 1.624 19.818 1.624 9.421 0 18.843-1.3 27.614-3.573-48.081-9.747-84.143-51.98-84.143-102.985v-1.299c13.969 7.797 30.214 12.67 47.431 13.319-28.264-18.843-46.781-51.005-46.781-87.391 0-19.492 5.197-37.36 14.294-52.954 51.655 63.675 129.3 105.258 216.365 109.807-1.624-7.797-2.599-15.918-2.599-24.04 0-57.828 46.782-104.934 104.934-104.934 30.213 0 57.502 12.67 76.67 33.137 23.715-4.548 46.456-13.32 66.599-25.34-7.798 24.366-24.366 44.833-46.132 57.827 21.117-2.273 41.584-8.122 60.426-16.243-14.292 20.791-32.161 39.308-52.628 54.253z"/></svg><svg viewBox="0 0 30 30" id="sprite--videocam" xmlns="http://www.w3.org/2000/svg"><g fill="none" fill-rule="evenodd"><path d="M0 0h30v30H0z"/><path d="M21.25 13.125V8.75c0-.688-.563-1.25-1.25-1.25H5c-.688 0-1.25.563-1.25 1.25v12.5c0 .688.563 1.25 1.25 1.25h15c.688 0 1.25-.563 1.25-1.25v-4.375l5 5V8.125l-5 5z" fill="#FFF" fill-rule="nonzero"/></g></svg></svg>